<?xml version="1.0" standalone="no"?>
<!DOCTYPE svg PUBLIC "-//W3C//DTD SVG 20010904//EN"
 "http://www.w3.org/TR/2001/REC-SVG-20010904/DTD/svg10.dtd">
<svg version="1.0" xmlns="http://www.w3.org/2000/svg"
 width="637.000000pt" height="637.000000pt" viewBox="0 0 637.000000 637.000000"
 preserveAspectRatio="xMidYMid meet">
<metadata>
Created by potrace 1.14, written by Peter Selinger 2001-2017
</metadata>
<g transform="translate(0.000000,637.000000) scale(0.100000,-0.100000)"
fill="#000000" stroke="none">
<path d="M0 3185 l0 -3185 3185 0 3185 0 0 3185 0 3185 -3185 0 -3185 0 0
-3185z m4461 1450 c170 -32 290 -87 380 -176 80 -77 91 -150 33 -204 -52 -48
-106 -40 -177 27 -109 102 -249 145 -437 135 -169 -9 -316 -67 -482 -189 -219
-162 -392 -238 -628 -273 -220 -34 -428 -14 -780 75 -288 72 -529 88 -650 41
-67 -25 -121 -77 -151 -146 -52 -115 -29 -497 49 -825 52 -216 170 -495 268
-630 238 -328 542 -493 1004 -541 66 -7 191 -9 308 -6 212 5 277 17 375 72
100 56 180 180 247 385 39 120 62 145 130 144 92 -1 129 -63 99 -169 -105
-380 -268 -563 -569 -637 -87 -21 -116 -23 -355 -23 -276 0 -352 8 -568 61
-452 110 -761 360 -984 795 -141 274 -246 717 -260 1094 -5 139 -3 186 11 254
44 214 162 347 358 402 68 19 109 23 228 23 184 1 258 -11 628 -100 178 -43
255 -53 407 -53 290 -1 444 55 745 272 229 166 520 238 771 192z"/>
</g>
</svg>
