<?xml version="1.0" encoding="UTF-8"?>
<svg xmlns="http://www.w3.org/2000/svg" xmlns:xlink="http://www.w3.org/1999/xlink" width="100px" height="73px" viewBox="0 0 100 73" version="1.1">
<g id="surface1">
<path style=" stroke:none;fill-rule:nonzero;fill:currentColor;fill-opacity:1;" d="M 43.671875 0.0546875 C 35.640625 0.242188 26.71875 1.25 18.554688 2.875 C 17.304688 3.128906 14.84375 3.789062 12.617188 4.480469 C 7.484375 6.058594 4.164062 8.117188 2.164062 10.941406 C 1.414062 12 1.132812 12.960938 1.195312 14.265625 C 1.242188 15.199219 1.382812 15.75 1.796875 16.632812 C 2.242188 17.605469 2.828125 18.40625 3.789062 19.375 C 5.15625 20.765625 6.210938 21.480469 8.8125 22.785156 C 12.515625 24.648438 15.710938 25.828125 18.882812 26.511719 C 19.476562 26.644531 19.765625 26.675781 19.765625 26.613281 C 19.765625 26.566406 19.695312 26.3125 19.617188 26.054688 C 19.25 24.875 19.25 23.367188 19.617188 21.101562 C 19.898438 19.351562 20.460938 16.632812 20.78125 15.46875 C 21.898438 11.363281 23.828125 7.144531 26.257812 3.480469 C 26.5625 3.019531 26.828125 2.625 26.835938 2.609375 C 26.875 2.5625 28.875 2.207031 30.195312 2.003906 C 35.078125 1.257812 40.210938 0.917969 47.929688 0.816406 C 57.414062 0.699219 64.921875 1.328125 72.96875 2.914062 C 78.570312 4.023438 84.867188 5.839844 87.929688 7.230469 C 91.054688 8.644531 92.90625 9.738281 94.492188 11.089844 C 95.554688 11.992188 95.679688 12.152344 95.742188 12.691406 C 95.765625 12.953125 95.921875 13.886719 96.070312 14.777344 C 96.304688 16.121094 96.351562 16.589844 96.359375 17.605469 C 96.367188 18.941406 96.304688 19.296875 95.921875 20.074219 C 95.523438 20.890625 95.851562 20.84375 96.703125 19.972656 C 97.242188 19.421875 97.59375 18.839844 97.875 18.0625 C 98.0625 17.542969 98.078125 17.378906 98.085938 16.347656 C 98.085938 15.390625 98.054688 15.105469 97.90625 14.578125 C 97.523438 13.25 96.648438 11.820312 95.726562 11.027344 C 94.085938 9.621094 90.359375 7.441406 87.695312 6.34375 C 83.117188 4.449219 78.898438 3.394531 69.023438 1.660156 C 62.257812 0.464844 52.414062 -0.15625 43.671875 0.0546875 Z M 43.671875 0.0546875 "/>
<path style=" stroke:none;fill-rule:nonzero;fill:currentColor;fill-opacity:1;" d="M 96.71875 10.320312 C 96.71875 10.382812 96.8125 10.507812 96.921875 10.617188 C 97.226562 10.910156 97.90625 11.84375 98.226562 12.417969 C 98.601562 13.109375 98.945312 14.1875 99.0625 15.058594 C 99.210938 16.261719 98.945312 17.605469 98.351562 18.589844 C 97.6875 19.695312 95.71875 21.699219 94.101562 22.917969 C 88.390625 27.234375 80 29.875 67.03125 31.4375 C 49.382812 33.558594 32.132812 32.367188 16.609375 27.933594 C 13.757812 27.125 12.046875 26.488281 9.804688 25.386719 C 6.578125 23.824219 4.4375 22.296875 2.078125 19.894531 C 1.4375 19.242188 0.898438 18.722656 0.882812 18.738281 C 0.867188 18.753906 0.882812 18.847656 0.921875 18.949219 C 0.960938 19.050781 1.023438 19.351562 1.054688 19.609375 C 1.15625 20.480469 1.484375 22.320312 1.757812 23.601562 C 2.710938 27.972656 4.203125 32.421875 6.296875 37.121094 C 7.875 40.648438 10.484375 44.390625 14.039062 48.21875 C 16.046875 50.378906 19.203125 53.195312 20.210938 53.71875 C 21.328125 54.300781 21.820312 54.921875 21.828125 55.75 C 21.835938 56.125 21.8125 56.21875 21.679688 56.289062 C 21.375 56.457031 20.945312 56.980469 20.710938 57.46875 C 20.21875 58.484375 20.015625 59.65625 19.945312 61.949219 L 19.898438 63.570312 L 20.28125 63.835938 C 20.484375 63.976562 21.34375 64.613281 22.1875 65.25 C 24.046875 66.640625 25.132812 67.363281 26.679688 68.230469 C 27.828125 68.875 29.25 69.558594 29.429688 69.558594 C 29.476562 69.558594 30.09375 69.746094 30.796875 69.980469 C 39.335938 72.820312 49.226562 73.621094 60.015625 72.347656 C 62.820312 72.007812 68.21875 70.570312 70.757812 69.480469 C 73.359375 68.355469 74.976562 67.253906 77 65.25 C 77.945312 64.316406 78.148438 64.070312 78.390625 63.578125 C 78.882812 62.554688 78.9375 61.429688 78.554688 59.929688 C 78.460938 59.542969 78.117188 58.515625 77.796875 57.648438 C 77.46875 56.785156 77.1875 55.992188 77.164062 55.882812 C 77.125 55.699219 77.1875 55.636719 77.835938 55.214844 C 80.007812 53.777344 82.171875 51.976562 84.34375 49.796875 C 86.21875 47.902344 87.554688 46.347656 89.21875 44.132812 C 92.875 39.242188 94.625 35.847656 96.367188 30.296875 C 97.1875 27.679688 98.8125 20.921875 98.710938 20.59375 C 98.6875 20.519531 98.757812 20.308594 98.867188 20.113281 C 99.804688 18.429688 99.960938 17.894531 99.953125 16.386719 C 99.953125 15.507812 99.914062 15.152344 99.773438 14.632812 C 99.34375 13.007812 98.351562 11.402344 97.242188 10.539062 C 96.789062 10.195312 96.71875 10.164062 96.71875 10.320312 Z M 95.6875 21.945312 C 95.453125 22.296875 93.8125 23.554688 92.421875 24.425781 C 90.171875 25.84375 87.734375 26.972656 84.6875 28.019531 C 83.375 28.476562 81.328125 29.082031 81.15625 29.074219 C 81.101562 29.074219 81.53125 28.929688 82.109375 28.757812 C 87.554688 27.148438 91.5625 25.183594 94.898438 22.496094 C 95.296875 22.179688 95.640625 21.882812 95.664062 21.84375 C 95.695312 21.800781 95.734375 21.769531 95.757812 21.769531 C 95.78125 21.769531 95.75 21.851562 95.6875 21.945312 Z M 80.726562 29.214844 C 80.671875 29.230469 80.578125 29.230469 80.53125 29.214844 C 80.476562 29.191406 80.515625 29.175781 80.625 29.175781 C 80.734375 29.175781 80.773438 29.191406 80.726562 29.214844 Z M 80.101562 29.371094 C 80.046875 29.386719 79.953125 29.386719 79.90625 29.371094 C 79.851562 29.347656 79.890625 29.332031 80 29.332031 C 80.109375 29.332031 80.148438 29.347656 80.101562 29.371094 Z M 79.476562 29.527344 C 79.421875 29.542969 79.328125 29.542969 79.28125 29.527344 C 79.226562 29.503906 79.265625 29.488281 79.375 29.488281 C 79.484375 29.488281 79.523438 29.503906 79.476562 29.527344 Z M 79.117188 29.597656 C 79.09375 29.621094 79.023438 29.628906 78.96875 29.605469 C 78.90625 29.582031 78.929688 29.558594 79.015625 29.558594 C 79.101562 29.550781 79.148438 29.574219 79.117188 29.597656 Z M 78.773438 29.6875 C 78.71875 29.703125 78.625 29.703125 78.578125 29.6875 C 78.523438 29.664062 78.5625 29.644531 78.671875 29.644531 C 78.78125 29.644531 78.820312 29.664062 78.773438 29.6875 Z M 78.414062 29.757812 C 78.390625 29.78125 78.320312 29.789062 78.265625 29.765625 C 78.203125 29.742188 78.226562 29.71875 78.3125 29.71875 C 78.398438 29.710938 78.445312 29.734375 78.414062 29.757812 Z M 78.070312 29.84375 C 78.015625 29.859375 77.921875 29.859375 77.875 29.84375 C 77.820312 29.820312 77.859375 29.804688 77.96875 29.804688 C 78.078125 29.804688 78.117188 29.820312 78.070312 29.84375 Z M 77.710938 29.914062 C 77.6875 29.9375 77.617188 29.945312 77.5625 29.921875 C 77.5 29.898438 77.523438 29.875 77.609375 29.875 C 77.695312 29.867188 77.742188 29.890625 77.710938 29.914062 Z M 77.398438 29.992188 C 77.375 30.015625 77.304688 30.023438 77.25 30 C 77.1875 29.976562 77.210938 29.953125 77.296875 29.953125 C 77.382812 29.945312 77.429688 29.96875 77.398438 29.992188 Z M 77.007812 30.070312 C 76.984375 30.09375 76.914062 30.101562 76.859375 30.078125 C 76.796875 30.054688 76.820312 30.03125 76.90625 30.03125 C 76.992188 30.023438 77.039062 30.046875 77.007812 30.070312 Z M 76.585938 30.15625 C 76.53125 30.171875 76.4375 30.171875 76.390625 30.15625 C 76.335938 30.132812 76.375 30.117188 76.484375 30.117188 C 76.59375 30.117188 76.632812 30.132812 76.585938 30.15625 Z M 76.226562 30.226562 C 76.203125 30.25 76.132812 30.257812 76.078125 30.234375 C 76.015625 30.210938 76.039062 30.1875 76.125 30.1875 C 76.210938 30.179688 76.257812 30.203125 76.226562 30.226562 Z M 75.835938 30.304688 C 75.8125 30.332031 75.742188 30.339844 75.6875 30.316406 C 75.625 30.289062 75.648438 30.265625 75.734375 30.265625 C 75.820312 30.257812 75.867188 30.28125 75.835938 30.304688 Z M 75.367188 30.386719 C 75.34375 30.410156 75.273438 30.417969 75.21875 30.394531 C 75.15625 30.371094 75.179688 30.347656 75.265625 30.347656 C 75.351562 30.339844 75.398438 30.363281 75.367188 30.386719 Z M 74.507812 30.542969 C 74.484375 30.566406 74.414062 30.574219 74.359375 30.550781 C 74.296875 30.527344 74.320312 30.503906 74.40625 30.503906 C 74.492188 30.496094 74.539062 30.519531 74.507812 30.542969 Z M 73.648438 30.699219 C 73.625 30.722656 73.554688 30.730469 73.5 30.707031 C 73.4375 30.683594 73.460938 30.660156 73.546875 30.660156 C 73.632812 30.652344 73.679688 30.675781 73.648438 30.699219 Z M 77.890625 59.605469 C 77.945312 59.960938 77.976562 60.667969 77.960938 61.1875 C 77.929688 62.019531 77.90625 62.175781 77.71875 62.570312 C 77.601562 62.804688 77.414062 63.058594 77.304688 63.113281 C 77.195312 63.167969 76.96875 63.410156 76.789062 63.640625 C 75.117188 65.878906 72.820312 67.648438 69.820312 69.03125 C 69.265625 69.28125 68.796875 69.480469 68.78125 69.457031 C 68.765625 69.441406 69.054688 69.289062 69.429688 69.117188 C 71.109375 68.371094 72.601562 67.457031 73.90625 66.40625 C 74.757812 65.714844 75.960938 64.480469 76.515625 63.742188 C 76.71875 63.457031 76.992188 63.167969 77.125 63.082031 C 77.6875 62.71875 77.945312 61.578125 77.8125 60.046875 C 77.773438 59.550781 77.71875 59.058594 77.6875 58.945312 C 77.65625 58.796875 77.664062 58.78125 77.71875 58.859375 C 77.765625 58.921875 77.84375 59.261719 77.890625 59.605469 Z M 72.164062 59.488281 C 72.992188 60.09375 73.132812 61.34375 72.5625 63.113281 C 72.195312 64.269531 70.632812 67.105469 70.304688 67.214844 C 70.25 67.230469 70.234375 67.292969 70.265625 67.339844 C 70.304688 67.410156 70.367188 67.410156 70.46875 67.355469 C 70.65625 67.253906 70.726562 67.253906 70.664062 67.355469 C 70.59375 67.476562 70.617188 67.46875 71.492188 67.074219 C 73.078125 66.367188 74.5 65.460938 75.492188 64.535156 L 76.132812 63.9375 L 75.726562 64.417969 C 74.171875 66.25 71.78125 67.90625 68.984375 69.109375 C 65.257812 70.703125 59.640625 71.882812 53.710938 72.316406 C 48.828125 72.667969 45.476562 72.597656 41.34375 72.058594 C 40.648438 71.96875 40.09375 71.875 40.109375 71.859375 C 40.125 71.835938 40.570312 71.882812 41.09375 71.945312 C 42.132812 72.082031 42.507812 72.105469 42.382812 72.007812 C 42.335938 71.976562 42.210938 71.828125 42.109375 71.679688 C 42.007812 71.53125 41.898438 71.390625 41.875 71.363281 C 41.851562 71.339844 41.742188 71.199219 41.640625 71.050781 C 41.539062 70.902344 41.429688 70.761719 41.40625 70.738281 C 41.382812 70.710938 41.273438 70.570312 41.171875 70.421875 C 41.070312 70.273438 40.960938 70.132812 40.9375 70.109375 C 40.914062 70.085938 40.804688 69.941406 40.703125 69.792969 C 40.601562 69.644531 40.492188 69.503906 40.46875 69.480469 C 40.445312 69.457031 40.335938 69.3125 40.234375 69.164062 C 40.132812 69.015625 40.023438 68.875 40 68.851562 C 39.976562 68.828125 39.867188 68.683594 39.765625 68.535156 C 39.664062 68.386719 39.554688 68.246094 39.53125 68.222656 C 39.507812 68.199219 39.046875 67.601562 38.515625 66.886719 C 37.984375 66.171875 37.523438 65.574219 37.5 65.550781 C 37.476562 65.527344 37.367188 65.382812 37.265625 65.234375 C 37.164062 65.085938 37.054688 64.945312 37.03125 64.921875 C 37.007812 64.898438 36.898438 64.753906 36.796875 64.605469 C 36.695312 64.457031 36.585938 64.316406 36.5625 64.292969 C 36.539062 64.269531 36.429688 64.125 36.328125 63.976562 C 36.226562 63.828125 36.117188 63.6875 36.09375 63.664062 C 36.070312 63.640625 35.960938 63.496094 35.859375 63.347656 C 35.757812 63.199219 35.648438 63.058594 35.625 63.035156 C 35.601562 63.011719 35.492188 62.867188 35.390625 62.71875 C 35.289062 62.570312 35.179688 62.429688 35.15625 62.40625 C 34.960938 62.214844 34.625 61.699219 34.703125 61.699219 C 34.757812 61.691406 34.109375 61.460938 33.257812 61.179688 C 32.398438 60.894531 31.71875 60.652344 31.734375 60.628906 C 31.757812 60.613281 32.085938 60.707031 32.46875 60.832031 C 40.460938 63.578125 49.789062 64.457031 58.125 63.269531 C 59.414062 63.089844 61.179688 62.773438 61.90625 62.609375 C 62.203125 62.539062 62.460938 62.492188 62.476562 62.507812 C 62.539062 62.570312 60.867188 63.058594 59.445312 63.386719 C 57.742188 63.789062 57.484375 63.875 57.664062 63.984375 C 58.015625 64.214844 60.890625 63.875 62.835938 63.386719 C 63.734375 63.160156 65.648438 62.476562 66.679688 62.011719 C 68.1875 61.34375 70.210938 60.210938 71.25 59.464844 C 71.609375 59.207031 71.789062 59.214844 72.164062 59.488281 Z M 73.007812 60.210938 C 73.351562 60.863281 73.304688 61.871094 72.875 63.191406 C 72.523438 64.300781 71.484375 66.320312 70.992188 66.863281 C 70.664062 67.222656 70.734375 67.027344 71.148438 66.390625 C 71.382812 66.035156 71.796875 65.28125 72.070312 64.722656 C 73.039062 62.726562 73.328125 61.195312 72.929688 60.226562 C 72.789062 59.898438 72.84375 59.890625 73.007812 60.210938 Z M 30.703125 60.21875 C 30.78125 60.265625 30.757812 60.273438 30.625 60.234375 C 30.515625 60.210938 30.375 60.148438 30.3125 60.109375 C 30.234375 60.0625 30.257812 60.054688 30.390625 60.09375 C 30.5 60.117188 30.640625 60.179688 30.703125 60.21875 Z M 31.5625 60.535156 C 31.640625 60.582031 31.617188 60.589844 31.484375 60.550781 C 31.375 60.527344 31.234375 60.464844 31.171875 60.425781 C 31.09375 60.378906 31.117188 60.371094 31.25 60.410156 C 31.359375 60.433594 31.5 60.496094 31.5625 60.535156 Z M 77.625 61.652344 C 77.570312 62.160156 77.421875 62.539062 77.15625 62.820312 C 76.828125 63.175781 76.789062 63.066406 77.078125 62.578125 C 77.226562 62.335938 77.414062 61.925781 77.484375 61.683594 C 77.554688 61.429688 77.632812 61.226562 77.648438 61.226562 C 77.664062 61.226562 77.65625 61.414062 77.625 61.652344 Z M 62.96875 62.601562 C 62.859375 62.664062 62.742188 62.710938 62.695312 62.710938 C 62.65625 62.710938 62.703125 62.664062 62.8125 62.601562 C 62.921875 62.539062 63.046875 62.492188 63.085938 62.492188 C 63.132812 62.492188 63.078125 62.539062 62.96875 62.601562 Z M 62.5 62.789062 C 62.4375 62.828125 62.296875 62.875 62.1875 62.910156 C 62.023438 62.949219 62.03125 62.933594 62.226562 62.835938 C 62.476562 62.71875 62.695312 62.679688 62.5 62.789062 Z M 68.59375 69.550781 C 68.53125 69.589844 68.390625 69.636719 68.28125 69.667969 C 68.117188 69.707031 68.125 69.691406 68.320312 69.597656 C 68.570312 69.480469 68.789062 69.441406 68.59375 69.550781 Z M 67.96875 69.785156 C 67.90625 69.824219 67.765625 69.871094 67.65625 69.902344 C 67.492188 69.941406 67.5 69.925781 67.695312 69.832031 C 67.945312 69.714844 68.164062 69.675781 67.96875 69.785156 Z M 37.710938 71.414062 C 37.6875 71.4375 37.617188 71.445312 37.5625 71.421875 C 37.5 71.398438 37.523438 71.375 37.609375 71.375 C 37.695312 71.363281 37.742188 71.390625 37.710938 71.414062 Z M 38.539062 71.578125 C 38.484375 71.59375 38.375 71.59375 38.304688 71.578125 C 38.226562 71.554688 38.273438 71.539062 38.398438 71.539062 C 38.53125 71.539062 38.585938 71.554688 38.539062 71.578125 Z M 38.960938 71.648438 C 38.9375 71.671875 38.867188 71.679688 38.8125 71.65625 C 38.75 71.632812 38.773438 71.609375 38.859375 71.609375 C 38.945312 71.601562 38.992188 71.625 38.960938 71.648438 Z M 39.476562 71.734375 C 39.421875 71.75 39.3125 71.75 39.242188 71.734375 C 39.164062 71.710938 39.210938 71.695312 39.335938 71.695312 C 39.46875 71.695312 39.523438 71.710938 39.476562 71.734375 Z M 39.945312 71.8125 C 39.890625 71.828125 39.78125 71.828125 39.710938 71.8125 C 39.632812 71.789062 39.679688 71.773438 39.804688 71.773438 C 39.9375 71.773438 39.992188 71.789062 39.945312 71.8125 Z M 39.945312 71.8125 "/>
<path style=" stroke:none;fill-rule:nonzero;fill:currentColor;fill-opacity:1;" d="M 53.59375 64.378906 C 53.59375 64.417969 53.632812 64.433594 53.671875 64.410156 C 53.71875 64.386719 53.75 64.347656 53.75 64.324219 C 53.75 64.308594 53.71875 64.292969 53.671875 64.292969 C 53.632812 64.292969 53.59375 64.332031 53.59375 64.378906 Z M 53.59375 64.378906 "/>
<path style=" stroke:none;fill-rule:nonzero;fill:currentColor;fill-opacity:1;" d="M 42.679688 72.128906 C 42.75 72.144531 42.875 72.144531 42.953125 72.128906 C 43.023438 72.105469 42.960938 72.089844 42.8125 72.089844 C 42.664062 72.089844 42.601562 72.105469 42.679688 72.128906 Z M 42.679688 72.128906 "/>
<path style=" stroke:none;fill-rule:nonzero;fill:currentColor;fill-opacity:1;" d="M 43.265625 72.207031 C 43.3125 72.222656 43.40625 72.222656 43.460938 72.207031 C 43.507812 72.183594 43.46875 72.167969 43.359375 72.167969 C 43.25 72.167969 43.210938 72.183594 43.265625 72.207031 Z M 43.265625 72.207031 "/>
<path style=" stroke:none;fill-rule:nonzero;fill:currentColor;fill-opacity:1;" d="M 0.390625 17.769531 C 0.390625 17.808594 0.429688 17.824219 0.46875 17.800781 C 0.515625 17.777344 0.546875 17.738281 0.546875 17.714844 C 0.546875 17.699219 0.515625 17.683594 0.46875 17.683594 C 0.429688 17.683594 0.390625 17.722656 0.390625 17.769531 Z M 0.390625 17.769531 "/>
<path style=" stroke:none;fill-rule:nonzero;fill:currentColor;fill-opacity:1;" d="M 20.703125 26.839844 C 20.703125 26.902344 20.742188 26.957031 20.78125 26.957031 C 20.828125 26.957031 20.859375 26.902344 20.859375 26.839844 C 20.859375 26.777344 20.828125 26.722656 20.78125 26.722656 C 20.742188 26.722656 20.703125 26.777344 20.703125 26.839844 Z M 20.703125 26.839844 "/>
<path style=" stroke:none;fill-rule:nonzero;fill:currentColor;fill-opacity:1;" d="M 21.367188 26.957031 C 21.335938 27.003906 21.34375 27.085938 21.390625 27.132812 C 21.492188 27.234375 21.570312 27.101562 21.492188 26.964844 C 21.4375 26.886719 21.414062 26.886719 21.367188 26.957031 Z M 21.367188 26.957031 "/>
</g>
</svg>
